<svg width="318" height="264" viewBox="0 0 318 264" fill="none" xmlns="http://www.w3.org/2000/svg">
<path d="M247.472 77.7361H94V186.069H247.472V77.7361Z" fill="white"/>
<path d="M161.708 113.847H121.083V186.069H161.708V113.847Z" fill="#A57939"/>
<path d="M224.903 113.847H188.792V145.444H224.903V113.847Z" fill="#92D3F5"/>
<path d="M247.472 77.7361L94 77.7375V73.2222L166.222 1L247.472 73.2222V77.7361Z" fill="#EA5A47"/>
<path d="M139.139 28.0833L116.569 50.6528V10.0278H139.139V28.0833Z" fill="#EA5A47"/>
<path d="M161.708 113.847H121.083V186.069H161.708V113.847Z" stroke="black" stroke-width="2" stroke-miterlimit="10" stroke-linecap="round" stroke-linejoin="round"/>
<path d="M224.903 113.847H188.792V145.444H224.903V113.847Z" stroke="black" stroke-width="2" stroke-miterlimit="10" stroke-linecap="round" stroke-linejoin="round"/>
<path d="M247.472 77.7361L94 77.7375V73.2222L166.222 1L247.472 73.2222V77.7361Z" stroke="black" stroke-width="2" stroke-miterlimit="10" stroke-linecap="round" stroke-linejoin="round"/>
<path d="M247.472 77.7361H94V186.069H247.472V77.7361Z" stroke="black" stroke-width="2" stroke-miterlimit="10" stroke-linecap="round" stroke-linejoin="round"/>
<path d="M139.139 28.0833L116.569 50.6528V10.0278H139.139V28.0833Z" stroke="black" stroke-width="2" stroke-miterlimit="10" stroke-linecap="round" stroke-linejoin="round"/>
<g clip-path="url(#clip0_318_471)">
<path d="M280.253 212.796C271.663 224.39 256.517 229.534 241.477 225.504C228.512 222.03 216.322 209.851 214.68 195.515L214.619 195.023C214.086 190.521 214.259 185.233 215.506 180.579L233.437 134.52L245.182 154.555C249.814 153.894 254.648 154.136 259.445 155.422L260.957 155.827C265.754 157.112 270.062 159.32 273.743 162.208L293.932 150.73L286.317 200.322C285.07 204.975 282.986 209.179 280.272 212.81" fill="#F4AA41"/>
<path d="M241.477 225.504C256.433 230.033 272.709 224.722 281.299 213.128L281.545 212.841C284.258 209.21 286.957 203.78 288.204 199.127L293.932 150.73" fill="#E27022"/>
<path d="M233.35 199.758C233.35 199.758 242.857 208.646 249.328 199.284C250.252 210.627 263.524 207.767 263.524 207.767C263.524 207.767 258.024 212.971 256.57 213.881C249.213 218.485 241.657 216.064 237.084 208.837C236.082 207.255 233.35 199.758 233.35 199.758Z" fill="#EA5A47"/>
<path d="M282.977 221.597L271.648 210.636" stroke="black" stroke-width="2" stroke-miterlimit="10" stroke-linecap="round" stroke-linejoin="round"/>
<path d="M275.081 227.407L263.751 216.446" stroke="black" stroke-width="2" stroke-miterlimit="10" stroke-linecap="round" stroke-linejoin="round"/>
<path d="M216.047 194.323C215.512 189.964 215.789 185.433 216.995 180.933L234.654 135.733L246.186 155.154C250.71 154.528 255.434 154.775 260.125 156.032L261.604 156.428C266.295 157.685 270.511 159.833 274.115 162.638L293.812 151.585L286.505 199.558C285.299 204.059 283.274 208.121 280.632 211.628" stroke="black" stroke-width="2" stroke-miterlimit="10" stroke-linecap="round" stroke-linejoin="round"/>
<path d="M209.031 201.783L224.322 197.955" stroke="black" stroke-width="2" stroke-miterlimit="10" stroke-linecap="round" stroke-linejoin="round"/>
<path d="M212.965 210.763L228.257 206.935" stroke="black" stroke-width="2" stroke-miterlimit="10" stroke-linecap="round" stroke-linejoin="round"/>
<path d="M243.101 197.71L254.933 200.88" stroke="black" stroke-width="2" stroke-miterlimit="10" stroke-linecap="round" stroke-linejoin="round"/>
<path d="M233.038 199.769C233.038 199.769 242.545 208.657 249.017 199.295C249.94 210.638 263.212 207.778 263.212 207.778C263.212 207.778 257.712 212.982 256.259 213.892C248.902 218.496 241.346 216.075 236.772 208.848C235.771 207.266 233.038 199.769 233.038 199.769Z" stroke="black" stroke-width="2" stroke-miterlimit="10" stroke-linecap="round" stroke-linejoin="round"/>
<path d="M225.301 214.162C229.639 218.813 235.291 222.342 241.885 224.109L243.362 224.505C249.956 226.272 256.618 226.042 262.698 224.183" stroke="black" stroke-width="2" stroke-miterlimit="10" stroke-linecap="round" stroke-linejoin="round"/>
<path d="M279.549 195.729C276.703 188.638 267.847 186.265 263.312 191.379" stroke="black" stroke-width="2" stroke-miterlimit="10" stroke-linecap="round" stroke-linejoin="round"/>
<path d="M224.935 181.095C230.945 176.378 239.802 178.751 241.172 185.446" stroke="black" stroke-width="2" stroke-miterlimit="10" stroke-linecap="round" stroke-linejoin="round"/>
</g>
<path d="M49.4689 153.357L41.5611 159.071L32.5822 176.158L30.2866 196.285L35.0056 204.943C38.9431 210.933 43.7772 214.548 51.5468 217.7L55.0055 211.972C55.0055 211.972 65.2126 223.563 77.7842 222.517C77.7842 222.517 96.4735 221.106 104.413 213.753C106.631 211.699 107.922 209.414 108.915 207.727C111.559 203.237 112.538 200.215 114.355 196.534L118.09 198.892L121.25 197.941L126.59 183.078L127.707 173.357L125.693 165.991L119.317 157.268L107.493 146.655C107.493 146.655 100.945 140.502 91.5151 143.658C91.5151 143.658 78.0012 138.299 69.1036 142.076C60.2059 145.854 62.5299 142.579 49.4689 153.357Z" fill="#F4AA41"/>
<path d="M84.1196 202.74L79.8969 208.362L75.5628 209.524L78.2791 216.023L80.4091 221.055L82.8936 224.747L88.5023 226.031L96.1772 222.891L96.6435 218.67L95.9183 211.101L95.5772 204.471L92.226 205.833L84.1196 202.74Z" fill="#EA5A47"/>
<path d="M73.4932 187.353L72.4903 194.59L76.8271 195.75L79.2264 196.036L86.8164 194.312L90.8275 189.057L86.2839 184.235L73.4932 187.353Z" fill="#3F3F3F"/>
<path d="M65.1391 176.938C65.1391 176.938 62.5868 179.93 60.6846 179.372C58.7822 178.815 57.6922 176.82 58.25 174.918C58.8078 173.016 60.8021 171.925 62.7045 172.483C64.6068 173.041 65.1391 176.938 65.1391 176.938Z" fill="black"/>
<path d="M74.5894 187.221L85.2438 184.366C85.9392 184.18 86.6786 184.427 87.1221 184.995L90.3951 189.18L87.1493 192.178C86.2324 193.025 84.7523 192.701 84.2737 191.548" stroke="black" stroke-width="2" stroke-linecap="round" stroke-linejoin="round"/>
<path d="M79.1981 192.967C79.293 194.107 78.3129 195.043 77.1792 194.896L72.7267 194.321L73.2675 188.781C73.3402 188.036 73.8668 187.415 74.5892 187.221" stroke="black" stroke-width="2" stroke-linecap="round" stroke-linejoin="round"/>
<path d="M76.0048 211.036C76.0048 211.036 78.8436 226.615 85.8344 226.867C90.7989 227.047 95.0095 225.398 96.2285 223.618C97.3971 221.911 98.7137 214.638 94.8953 205.974" stroke="black" stroke-width="2" stroke-linecap="round" stroke-linejoin="round"/>
<path d="M90.7237 170.082C90.7237 170.082 94.43 171.398 95.7987 169.964C97.1673 168.529 97.114 166.257 95.6799 164.888C94.2457 163.52 91.9735 163.573 90.6049 165.007C89.2362 166.442 90.7237 170.082 90.7237 170.082Z" fill="black"/>
<path d="M64.3239 200.811C65.1738 207.277 70.8686 209.742 74.93 210.681C77.3006 211.229 79.7663 210.348 81.2273 208.403L84.7619 203.696L90.1763 206.005C92.4144 206.959 94.9902 206.489 96.7691 204.829C99.817 201.986 103.516 197.003 101.019 190.978" stroke="black" stroke-width="2" stroke-linecap="round" stroke-linejoin="round"/>
<path d="M47.7605 178.34C46.1412 188.361 52.9296 201.156 55.1094 204.941C55.5332 205.676 55.6748 206.527 55.5222 207.363L54.0249 215.556C53.5555 218.125 50.5971 219.361 48.4549 217.868C41.1617 212.785 28.3268 202.098 29.3508 191.983C32.9496 156.438 48.4319 153.158 48.4319 153.158C52.4664 148.484 67.9273 135.044 91.8544 143.149C91.8544 143.149 106.022 136.162 125.619 165.574C131.224 173.987 125.65 189.473 121.994 197.472C120.903 199.858 117.7 200.283 116.001 198.284L110.644 191.979C110.094 191.332 109.791 190.524 109.79 189.675C109.786 185.308 109.267 170.833 102.854 162.963" stroke="black" stroke-width="2" stroke-linecap="round" stroke-linejoin="round"/>
<path d="M112.827 194.547C112.827 194.547 110.613 207.63 103.138 212.512" stroke="black" stroke-width="2" stroke-linecap="round" stroke-linejoin="round"/>
<path d="M55.5154 210.845C55.5154 210.845 63.6771 219.959 72.5916 220.45" stroke="black" stroke-width="2" stroke-linecap="round" stroke-linejoin="round"/>
<path d="M84.762 203.696L83.3545 198.443" stroke="black" stroke-width="2" stroke-linecap="round" stroke-linejoin="round"/>
<defs>
<clipPath id="clip0_318_471">
<rect width="106" height="106" fill="white" transform="translate(215.435 121) rotate(15)"/>
</clipPath>
</defs>
</svg>
