<svg width="64" height="74" viewBox="0 0 64 74" fill="none" xmlns="http://www.w3.org/2000/svg">
<g clip-path="url(#clip0_301_339)">
<path d="M12.0785 65.4658C15.2881 67.5953 19.5894 66.7602 21.6857 63.6007C23.7819 60.4412 22.8792 56.1536 19.6696 54.0241C16.4599 51.8946 12.1586 52.7296 10.0624 55.8891C7.96614 59.0486 8.86878 63.3363 12.0785 65.4658Z" fill="url(#paint0_linear_301_339)"/>
<path d="M20.447 46.6921C19.3331 45.9531 19.0653 44.4434 19.8477 43.3903C21.6361 40.9997 23.4046 39.2276 25.1566 38.0693C27.358 36.6119 30.5351 35.5133 34.6796 34.7752C38.8241 34.0371 41.577 33.3781 42.9351 32.8029C45.0106 31.9348 46.6485 30.591 47.8568 28.7698C49.4509 26.3671 50.0632 24.13 49.6938 22.0586C49.3244 19.9872 47.9645 18.1787 45.6253 16.6267C43.3879 15.1422 41.1751 14.5667 38.9821 14.8969C37.3435 15.1485 35.9212 15.894 34.722 17.1443C33.9739 17.925 32.741 18.0065 31.8257 17.3992L26.1739 13.6495C25.0212 12.8847 24.7606 11.2906 25.6475 10.2587C28.4575 7.00106 31.8918 5.12574 35.9536 4.62796C40.7989 4.03207 45.7529 5.41699 50.8284 8.78439C56.0589 12.2546 59.2749 16.2696 60.4637 20.8276C61.6572 25.3888 60.697 30.011 57.5815 34.7069C54.8076 38.8879 50.0971 41.6879 43.4567 43.1182L35.6823 44.5652C35.6022 44.5807 35.5222 44.5963 35.4438 44.6198C32.9782 45.2978 30.6776 46.9572 28.5419 49.598C27.8047 50.5095 26.4734 50.6973 25.4806 50.0386L20.4438 46.6969L20.447 46.6921Z" fill="url(#paint1_linear_301_339)"/>
<g opacity="0.2">
<path d="M18.7177 55.4591C21.1199 57.0528 21.7986 60.277 20.2298 62.6416C18.661 65.0062 15.4266 65.6341 13.0244 64.0404C10.6223 62.4466 9.94352 59.2225 11.5123 56.8579C13.0843 54.4885 16.3156 53.8654 18.7177 55.4591ZM19.6666 54.0289C16.4557 51.8986 12.1565 52.7332 10.0594 55.8939C7.96239 59.0547 8.86459 63.3402 12.0755 65.4706C15.2865 67.6009 19.5857 66.7663 21.6827 63.6055C23.7798 60.4448 22.8727 56.156 19.6666 54.0289Z" fill="#424242"/>
<path d="M49.8797 10.2145C54.7131 13.4213 57.7112 17.1338 58.7882 21.24C59.8603 25.3431 58.9961 29.4316 56.1336 33.7461C53.6285 37.5218 49.2433 40.1051 43.0927 41.4278L35.3423 42.8701C35.2142 42.895 35.0909 42.9231 34.9645 42.9559C32.1566 43.7295 29.5371 45.5961 27.1906 48.5021C27.0114 48.7197 26.6798 48.7674 26.4328 48.6036L21.3961 45.2619C21.2169 45.143 21.1639 44.9705 21.1406 44.8795C21.1252 44.787 21.1123 44.6067 21.2422 44.432C22.9038 42.2113 24.5468 40.555 26.1265 39.509C28.124 38.1909 31.1124 37.1664 35.0039 36.4732C39.3166 35.7025 42.1398 35.0215 43.6241 34.3928C46.0096 33.3939 47.9181 31.8314 49.3067 29.7385C51.1444 26.9687 51.8472 24.2904 51.403 21.7849C50.9457 19.2363 49.3204 17.0183 46.5744 15.1964C43.9688 13.4677 41.3188 12.7943 38.6982 13.1909C36.683 13.4949 34.9241 14.422 33.4611 15.9437C33.3039 16.1071 33.0024 16.12 32.7748 15.969L27.1229 12.2192C26.9292 12.0907 26.8729 11.9022 26.8607 11.8049C26.8421 11.6964 26.8502 11.537 26.9739 11.3925C29.5237 8.44292 32.5383 6.7903 36.193 6.3383C40.5833 5.79753 45.1868 7.10097 49.8797 10.2145ZM50.8286 8.78431C45.7531 5.41692 40.7991 4.03199 35.9618 4.62633C31.9 5.12412 28.4625 7.00421 25.6557 10.2571C24.764 11.2858 25.0294 12.8831 26.1821 13.6479L31.8339 17.3976C32.7492 18.0049 33.982 17.9234 34.7302 17.1427C35.9294 15.8923 37.3468 15.1437 38.9903 14.8952C41.1784 14.5618 43.3912 15.1374 45.6335 16.6251C47.9776 18.1803 49.3294 19.9903 49.702 22.057C50.0714 24.1284 49.4591 26.3655 47.8649 28.7682C46.6598 30.5846 45.022 31.9284 42.9433 32.8013C41.5852 33.3764 38.8323 34.0355 34.6878 34.7736C30.5432 35.5117 27.3662 36.6102 25.1648 38.0676C23.4128 39.226 21.6442 40.998 19.8559 43.3887C19.0686 44.4386 19.3413 45.9515 20.4552 46.6905L25.4919 50.0322C26.4848 50.6909 27.816 50.5031 28.5533 49.5916C30.6858 46.9556 32.9864 45.2962 35.4551 44.6134C35.5335 44.5899 35.6136 44.5743 35.6936 44.5588L43.468 43.1118C50.1133 41.6847 54.8189 38.8815 57.5928 34.7005C60.7083 30.0046 61.6686 25.3825 60.475 20.8212C59.2751 16.2695 56.0591 12.2545 50.8286 8.78431Z" fill="#424242"/>
</g>
</g>
<defs>
<linearGradient id="paint0_linear_301_339" x1="50.1244" y1="8.11685" x2="12.5067" y2="64.8161" gradientUnits="userSpaceOnUse">
<stop stop-color="#FF5252"/>
<stop offset="0.2061" stop-color="#FD4D4D"/>
<stop offset="0.4365" stop-color="#F64040"/>
<stop offset="0.6787" stop-color="#EA2A2A"/>
<stop offset="0.9274" stop-color="#DA0B0B"/>
<stop offset="1" stop-color="#D50000"/>
</linearGradient>
<linearGradient id="paint1_linear_301_339" x1="50.8287" y1="8.58413" x2="13.2111" y2="65.2834" gradientUnits="userSpaceOnUse">
<stop stop-color="#FF5252"/>
<stop offset="0.2061" stop-color="#FD4D4D"/>
<stop offset="0.4365" stop-color="#F64040"/>
<stop offset="0.6787" stop-color="#EA2A2A"/>
<stop offset="0.9274" stop-color="#DA0B0B"/>
<stop offset="1" stop-color="#D50000"/>
</linearGradient>
<clipPath id="clip0_301_339">
<rect width="64" height="74" fill="white"/>
</clipPath>
</defs>
</svg>
