<svg width="84" height="74" viewBox="0 0 84 74" fill="none" xmlns="http://www.w3.org/2000/svg">
<path d="M41.2524 9.01127C22.8667 8.54896 16.9129 22.4308 16.4579 27.6396C16.1039 31.6895 14.3216 46.5022 22.9804 56.4513C27.4489 61.5861 34.6098 64.1443 42.2005 63.9717C49.8544 63.7991 56.7688 62.3135 61.4205 56.3342C69.2514 46.268 68.4171 31.2272 67.3553 26.3636C66.3567 21.8391 62.4823 9.5414 41.2524 9.01127Z" fill="#FFEAC8"/>
<path d="M62.1472 36.4182C62.7982 41.2325 60.6556 45.8249 55.0115 46.1516C49.8479 46.4536 46.6624 43.2421 46.4096 38.5141C46.1505 33.669 48.8682 29.1629 53.185 28.7006C57.7419 28.2136 61.5025 31.604 62.1472 36.4182Z" fill="#D27856"/>
<path d="M12.8995 13.1728C12.8995 13.1728 6.68665 15.5461 5.18874 19.072C3.17256 23.8185 4.10165 33.2374 5.18874 36.8928C6.25687 40.4804 9.10101 44.1851 13.4936 44.068C17.8862 43.9509 21.7416 39.6113 23.1005 33.9463C24.4657 28.2752 24.7627 18.5604 25.1735 16.8221C25.5844 15.0837 26.2985 13.6968 26.2985 13.6968C26.2985 13.6968 20.8441 8.54348 12.8995 13.1728Z" fill="#D27856"/>
<path d="M64.9219 12.4203C64.9219 12.4203 73.3469 12.71 75.363 13.5792C77.3792 14.4483 79.2184 18.3811 79.0414 23.6454C78.8645 28.9097 78.5105 37.4225 75.7802 40.3628C73.5238 42.7915 68.9606 42.9641 66.4072 39.956C63.8538 36.9478 62.2547 31.8562 61.6606 28.5583C61.0665 25.2604 60.0616 20.9824 59.4043 19.0715C58.7533 17.1606 57.1479 13.3449 56.32 12.4758C55.4857 11.6128 57.1479 10.7991 64.9219 12.4203Z" fill="#D27856"/>
<path d="M19.8961 10.4543C15.3265 10.1707 7.79272 13.6967 6.25057 17.3397C4.70842 20.9828 5.61222 32.8058 6.90788 36.2578C8.27307 39.9009 11.1172 44.4747 16.0407 40.5419C20.9642 36.6092 22.2662 26.7155 22.7466 23.5348C23.2206 20.354 23.8716 16.4767 24.5858 15.6692C25.3 14.8617 26.3049 13.7028 26.3049 13.7028C26.3049 13.7028 25.5338 10.7995 19.8961 10.4543Z" fill="#865B51"/>
<path d="M65.9268 9.70307C70.2183 9.99279 74.8827 11.5523 76.6018 15.2016C78.3209 18.8447 77.67 27.4684 77.019 31.5738C76.368 35.6792 74.8258 39.9634 70.9704 39.501C67.115 39.0387 65.1558 33.9471 63.9739 29.1451C62.7856 24.3432 61.5405 19.5412 59.9984 16.0707C59.0693 13.9749 55.8459 12.4277 55.8459 12.4277C55.8459 12.4277 57.268 9.12364 65.9268 9.70307Z" fill="#865B51"/>
<path d="M32.8717 38.427C32.6188 40.5351 31.5065 42.2365 29.0921 41.9899C27.3793 41.8111 26.229 39.8201 26.4818 37.7057C26.7346 35.5976 27.4868 34.0812 29.5093 34.1182C32.6504 34.1736 33.1245 36.3126 32.8717 38.427Z" fill="#2F2F2F"/>
<path d="M57.6725 37.8351C57.7736 39.9556 56.9141 41.7679 54.4049 41.9467C52.2244 42.1008 51.1057 40.2577 51.0109 38.1372C50.9098 36.0167 51.9905 34.3153 54.0699 34.0626C56.7687 33.7236 57.5714 35.7146 57.6725 37.8351Z" fill="#2F2F2F"/>
<path d="M48.4322 48.5237C48.5334 50.6442 47.0671 52.6291 42.4975 52.5736C38.048 52.5181 36.43 50.7613 36.3289 48.6408C36.2277 46.5203 38.7559 44.6156 42.3774 44.5354C47.3641 44.4121 48.3311 46.397 48.4322 48.5237Z" fill="#2F2F2F"/>
<path d="M38.345 57.0855C38.345 57.0855 38.8822 62.1217 39.4131 63.6258C40.5381 66.8065 45.2783 66.2764 46.1189 63.2806C46.8331 60.7347 46.3591 56.3396 46.3591 56.3396L42.1498 55.7602L38.345 57.0855Z" fill="#E94B8C"/>
<path d="M42.6428 58.7626C41.9033 58.7935 41.9286 59.4592 41.9286 60.9879C41.9286 62.5228 42.0171 63.4475 42.7312 63.4166C43.4454 63.3858 43.357 62.2023 43.357 61.105C43.357 60.0078 43.4138 58.7318 42.6428 58.7626Z" fill="#EF87B2"/>
<path d="M32.6506 52.309C31.7973 53.5357 33.4532 54.6206 34.8184 55.5206C36.1836 56.4144 37.8395 57.7767 39.7988 57.7459C41.992 57.715 42.5861 56.2726 42.5861 56.2726C42.5861 56.2726 43.3003 57.9801 46.4099 57.6596C48.0721 57.487 50.1199 55.6685 50.7393 55.2617C51.9275 54.4788 53.3496 53.4987 52.7238 52.685C52.0096 51.7542 50.4991 53.0056 48.9569 53.7823C47.4148 54.5651 46.8839 54.9411 45.7273 54.9411C44.5706 54.9411 43.768 54.4788 43.7111 52.5987C43.6605 51.0638 43.6795 50.7741 43.6795 50.7741H41.0376C41.0376 50.7741 41.1261 52.3953 41.1261 52.8576C41.1261 54.072 40.4751 54.5959 39.23 54.6514C37.9849 54.7069 36.6513 53.696 35.994 53.3199C35.3493 52.9501 33.3332 51.3289 32.6506 52.309Z" fill="#2F2F30"/>
</svg>
