<svg width="264" height="99" viewBox="0 0 264 99" fill="none" xmlns="http://www.w3.org/2000/svg">
<g clip-path="url(#clip0_301_238)">
<path d="M128.723 2.71448L90.7153 35.2926H93.4302L93.4302 80.0876H164.016V35.2926H166.731L128.723 2.71448Z" fill="url(#paint0_radial_301_238)"/>
<path opacity="0.2" d="M128.723 5.39539L162.306 34.1795C162.102 34.5053 161.98 34.8854 161.98 35.2926V78.0514H95.4663L95.4663 35.2926C95.4663 34.8854 95.3441 34.5053 95.1405 34.1863L128.723 5.39539ZM128.723 2.71448L90.7153 35.2926H93.4302L93.4302 80.0876H164.016V35.2926H166.731L128.723 2.71448Z" fill="#424242"/>
<path d="M169.446 81.4454H98.8601V76.0157H166.731C168.231 76.0157 169.446 77.2306 169.446 78.7306V81.4454Z" fill="#689F38"/>
<path opacity="0.2" d="M166.731 78.0529C167.105 78.0529 167.41 78.3583 167.41 78.7316V79.4103H100.896V78.0529H166.731ZM166.731 76.0168H98.8601V81.4465H169.446V78.7316C169.446 77.2317 168.231 76.0168 166.731 76.0168Z" fill="#424242"/>
<path opacity="0.2" d="M134.832 17.6469C135.578 17.6469 136.189 18.2577 136.189 19.0043V31.2211C136.189 31.9677 135.578 32.5785 134.832 32.5785H122.615C121.868 32.5785 121.258 31.9677 121.258 31.2211V19.0043C121.258 18.2577 121.868 17.6469 122.615 17.6469H134.832ZM134.832 16.2894H122.615C121.115 16.2894 119.9 17.5043 119.9 19.0043V31.2211C119.9 32.721 121.115 33.9359 122.615 33.9359H134.832C136.332 33.9359 137.547 32.721 137.547 31.2211V19.0043C137.547 17.5043 136.332 16.2894 134.832 16.2894Z" fill="#424242"/>
<path opacity="0.2" d="M151.8 40.7233C152.546 40.7233 153.157 41.3341 153.157 42.0807V61.0846C153.157 61.8312 152.546 62.442 151.8 62.442H139.583C138.836 62.442 138.225 61.8312 138.225 61.0846V42.0807C138.225 41.3341 138.836 40.7233 139.583 40.7233H151.8ZM151.8 39.3658H139.583C138.083 39.3658 136.868 40.5807 136.868 42.0807V61.0846C136.868 62.5846 138.083 63.7995 139.583 63.7995H151.8C153.3 63.7995 154.514 62.5846 154.514 61.0846V42.0807C154.514 40.5807 153.3 39.3658 151.8 39.3658Z" fill="#424242"/>
<path d="M128.723 73.3014H104.29V39.3658C104.29 38.6193 104.901 38.0084 105.647 38.0084H127.366C128.113 38.0084 128.723 38.6193 128.723 39.3658V73.3014Z" fill="url(#paint1_radial_301_238)"/>
<path d="M126.009 71.6513H107.005C106.631 71.6513 106.326 71.3458 106.326 70.9725V40.3355C106.326 39.9622 106.631 39.6568 107.005 39.6568H126.009C126.382 39.6568 126.687 39.9622 126.687 40.3355V70.9725C126.687 71.3458 126.382 71.6513 126.009 71.6513Z" fill="url(#paint2_radial_301_238)"/>
<path d="M122.276 18.6649H135.171V31.5604H122.276V18.6649Z" fill="#4FC3F7"/>
<path d="M121.257 19.0044V31.2212C121.257 31.9678 121.868 32.5786 122.615 32.5786H134.832C135.578 32.5786 136.189 31.9678 136.189 31.2212V19.0044C136.189 18.2578 135.578 17.647 134.832 17.647H122.615C121.868 17.647 121.257 18.2578 121.257 19.0044ZM134.832 24.4341H129.402V19.0044H134.832V24.4341ZM128.044 19.0044V24.4341H122.615V19.0044H128.044ZM122.615 25.7915H128.044V31.2212H122.615V25.7915ZM129.402 31.2212V25.7915H134.832V31.2212H129.402Z" fill="#EEEEEE"/>
<path d="M138.924 41.7413H152.458V61.4239H138.924V41.7413Z" fill="#4FC3F7"/>
<path d="M123.972 52.9403H109.041C108.667 52.9403 108.362 52.6349 108.362 52.2616V42.7596C108.362 42.3864 108.667 42.0809 109.041 42.0809H123.972C124.346 42.0809 124.651 42.3864 124.651 42.7596V52.2616C124.651 52.6349 124.346 52.9403 123.972 52.9403Z" fill="url(#paint3_radial_301_238)"/>
<path d="M123.972 69.2286H109.041C108.667 69.2286 108.362 68.9232 108.362 68.5499V56.3331C108.362 55.9598 108.667 55.6544 109.041 55.6544H123.972C124.345 55.6544 124.651 55.9598 124.651 56.3331V68.5499C124.651 68.9232 124.345 69.2286 123.972 69.2286Z" fill="url(#paint4_radial_301_238)"/>
<path d="M131.452 75.5536H101.588V73.0696C101.588 72.1397 102.342 71.3864 103.272 71.3864H129.775C130.705 71.3864 131.458 72.1397 131.458 73.0696V75.5536H131.452Z" fill="url(#paint5_linear_301_238)"/>
<path opacity="0.3" d="M129.775 72.0651C130.325 72.0651 130.78 72.513 130.78 73.0696V74.8749H102.274V73.0696C102.274 72.5198 102.722 72.0651 103.278 72.0651H129.775ZM129.775 71.3864H103.272C102.342 71.3864 101.588 72.1397 101.588 73.0696V75.5536H131.452V73.0696C131.452 72.1397 130.698 71.3864 129.775 71.3864Z" fill="#263238"/>
<path d="M134.167 79.4233H98.8735V76.5727C98.8735 75.5954 99.6676 74.8013 100.645 74.8013H132.395C133.372 74.8013 134.167 75.5954 134.167 76.5727V79.4233Z" fill="url(#paint6_linear_301_238)"/>
<path opacity="0.3" d="M132.395 75.48C132.999 75.48 133.488 75.9687 133.488 76.5727V78.7446H99.5522V76.5727C99.5522 75.9687 100.041 75.48 100.645 75.48H132.395ZM132.395 74.8013H100.645C99.6676 74.8013 98.8735 75.5954 98.8735 76.5727V79.4233H134.167V76.5727C134.167 75.5954 133.379 74.8013 132.395 74.8013Z" fill="#263238"/>
<path opacity="0.2" d="M115.509 73.0731C115.572 72.9248 115.386 72.7034 115.093 72.5786C114.8 72.4537 114.511 72.4727 114.448 72.621C114.385 72.7693 114.571 72.9907 114.864 73.1156C115.157 73.2404 115.446 73.2214 115.509 73.0731Z" fill="#424242"/>
<path opacity="0.2" d="M128.304 74.4193C128.393 74.3087 128.301 74.085 128.097 73.9196C127.894 73.7542 127.656 73.7098 127.566 73.8204C127.476 73.9309 127.568 74.1546 127.772 74.32C127.976 74.4854 128.214 74.5298 128.304 74.4193Z" fill="#424242"/>
<path opacity="0.08" d="M116.71 74.1907C117.096 74.1907 117.409 74.0387 117.409 73.8513C117.409 73.6639 117.096 73.512 116.71 73.512C116.324 73.512 116.011 73.6639 116.011 73.8513C116.011 74.0387 116.324 74.1907 116.71 74.1907Z" fill="#424242"/>
<path opacity="0.08" d="M122.737 74.1435C123.123 74.1435 123.436 73.9916 123.436 73.8041C123.436 73.6167 123.123 73.4648 122.737 73.4648C122.351 73.4648 122.038 73.6167 122.038 73.8041C122.038 73.9916 122.351 74.1435 122.737 74.1435Z" fill="#424242"/>
<path opacity="0.08" d="M121.291 73.2338C121.557 73.2338 121.773 73.1031 121.773 72.9419C121.773 72.7807 121.557 72.6501 121.291 72.6501C121.025 72.6501 120.809 72.7807 120.809 72.9419C120.809 73.1031 121.025 73.2338 121.291 73.2338Z" fill="#424242"/>
<path opacity="0.08" d="M129.131 73.4776C129.513 73.4776 129.823 73.2892 129.823 73.0568C129.823 72.8244 129.513 72.636 129.131 72.636C128.748 72.636 128.438 72.8244 128.438 73.0568C128.438 73.2892 128.748 73.4776 129.131 73.4776Z" fill="#424242"/>
<path opacity="0.08" d="M112.529 73.0639C112.795 73.0639 113.011 72.9606 113.011 72.8332C113.011 72.7057 112.795 72.6024 112.529 72.6024C112.263 72.6024 112.047 72.7057 112.047 72.8332C112.047 72.9606 112.263 73.0639 112.529 73.0639Z" fill="#424242"/>
<path opacity="0.08" d="M126.388 73.6414C126.818 73.5766 127.141 73.3558 127.109 73.1483C127.078 72.9407 126.704 72.825 126.274 72.8898C125.844 72.9546 125.521 73.1753 125.552 73.3829C125.584 73.5905 125.958 73.7062 126.388 73.6414Z" fill="#424242"/>
<path opacity="0.2" d="M113.717 74.1367C114.126 74.0407 114.418 73.7972 114.37 73.5929C114.322 73.3886 113.952 73.3007 113.543 73.3967C113.135 73.4926 112.842 73.7361 112.89 73.9404C112.938 74.1448 113.308 74.2326 113.717 74.1367Z" fill="#424242"/>
<path opacity="0.2" d="M123.979 73.1864C124.511 73.1864 124.943 73.0284 124.943 72.8335C124.943 72.6385 124.511 72.4805 123.979 72.4805C123.447 72.4805 123.015 72.6385 123.015 72.8335C123.015 73.0284 123.447 73.1864 123.979 73.1864Z" fill="#424242"/>
<path opacity="0.2" d="M118.355 72.8766C118.624 72.6992 118.779 72.459 118.7 72.34C118.622 72.2211 118.34 72.2685 118.071 72.4459C117.802 72.6233 117.647 72.8635 117.725 72.9824C117.804 73.1014 118.086 73.054 118.355 72.8766Z" fill="#424242"/>
<path opacity="0.2" d="M120.871 74.1672C120.962 73.9699 120.628 73.6212 120.124 73.3886C119.62 73.1559 119.138 73.1273 119.047 73.3246C118.956 73.522 119.29 73.8706 119.794 74.1033C120.297 74.336 120.78 74.3646 120.871 74.1672Z" fill="#424242"/>
<path opacity="0.2" d="M129.285 76.8774C129.613 76.7582 129.833 76.5388 129.778 76.3873C129.723 76.2359 129.413 76.2097 129.085 76.3288C128.758 76.448 128.537 76.6674 128.592 76.8188C128.647 76.9703 128.957 76.9965 129.285 76.8774Z" fill="#424242"/>
<path opacity="0.2" d="M115.046 78.0872C115.278 77.9288 115.399 77.7025 115.317 77.5817C115.235 77.4609 114.98 77.4914 114.747 77.6499C114.515 77.8083 114.394 78.0346 114.476 78.1554C114.558 78.2761 114.813 78.2456 115.046 78.0872Z" fill="#424242"/>
<path opacity="0.08" d="M127.284 77.9372C127.712 77.9372 128.058 77.7853 128.058 77.5978C128.058 77.4104 127.712 77.2585 127.284 77.2585C126.857 77.2585 126.511 77.4104 126.511 77.5978C126.511 77.7853 126.857 77.9372 127.284 77.9372Z" fill="#424242"/>
<path opacity="0.08" d="M120.633 77.8961C121.06 77.8961 121.407 77.7441 121.407 77.5567C121.407 77.3693 121.06 77.2173 120.633 77.2173C120.206 77.2173 119.859 77.3693 119.859 77.5567C119.859 77.7441 120.206 77.8961 120.633 77.8961Z" fill="#424242"/>
<path opacity="0.08" d="M122.228 76.9868C122.52 76.9868 122.757 76.8562 122.757 76.695C122.757 76.5338 122.52 76.4031 122.228 76.4031C121.936 76.4031 121.698 76.5338 121.698 76.695C121.698 76.8562 121.936 76.9868 122.228 76.9868Z" fill="#424242"/>
<path opacity="0.08" d="M113.588 77.2312C114.008 77.2312 114.348 77.0428 114.348 76.8104C114.348 76.578 114.008 76.3896 113.588 76.3896C113.168 76.3896 112.828 76.578 112.828 76.8104C112.828 77.0428 113.168 77.2312 113.588 77.2312Z" fill="#424242"/>
<path opacity="0.08" d="M131.893 76.817C132.185 76.817 132.422 76.7137 132.422 76.5862C132.422 76.4588 132.185 76.3555 131.893 76.3555C131.6 76.3555 131.363 76.4588 131.363 76.5862C131.363 76.7137 131.6 76.817 131.893 76.817Z" fill="#424242"/>
<path opacity="0.08" d="M117.519 77.13C117.546 76.9218 117.186 76.7035 116.713 76.6424C116.241 76.5813 115.837 76.7005 115.81 76.9087C115.783 77.1168 116.144 77.3351 116.616 77.3963C117.088 77.4574 117.492 77.3382 117.519 77.13Z" fill="#424242"/>
<path opacity="0.2" d="M131.503 77.6859C131.545 77.4801 131.212 77.2397 130.76 77.1489C130.308 77.0581 129.908 77.1514 129.867 77.3572C129.825 77.563 130.158 77.8034 130.61 77.8942C131.062 77.985 131.462 77.8917 131.503 77.6859Z" fill="#424242"/>
<path opacity="0.2" d="M119.262 76.9394C119.847 76.9394 120.321 76.7814 120.321 76.5865C120.321 76.3916 119.847 76.2336 119.262 76.2336C118.677 76.2336 118.203 76.3916 118.203 76.5865C118.203 76.7814 118.677 76.9394 119.262 76.9394Z" fill="#424242"/>
<path opacity="0.2" d="M126.178 76.7319C126.251 76.605 126.067 76.3633 125.768 76.1922C125.468 76.021 125.167 75.9852 125.094 76.1121C125.021 76.239 125.205 76.4807 125.505 76.6518C125.804 76.823 126.106 76.8588 126.178 76.7319Z" fill="#424242"/>
<path opacity="0.2" d="M123.856 77.8631C124.412 77.6378 124.795 77.2889 124.712 77.084C124.629 76.879 124.111 76.8955 123.555 77.1208C122.999 77.3461 122.616 77.695 122.699 77.8999C122.782 78.1049 123.3 78.0884 123.856 77.8631Z" fill="#424242"/>
<path d="M139.583 40.7234C138.836 40.7234 138.225 41.3342 138.225 42.0808V61.0847C138.225 61.8313 138.836 62.4422 139.583 62.4422H151.8C152.546 62.4422 153.157 61.8313 153.157 61.0847V42.0808C153.157 41.3342 152.546 40.7234 151.8 40.7234H139.583ZM146.37 42.0808H151.8V47.5105H146.37V42.0808ZM139.583 42.0808H145.012V47.5105H139.583V42.0808ZM139.583 48.8679H145.012V54.2976H139.583V48.8679ZM145.012 61.0847H139.583V55.655H145.012V61.0847ZM151.8 61.0847H146.37V55.655H151.8V61.0847ZM146.37 54.2976V48.8679H151.8V54.2976H146.37Z" fill="#EEEEEE"/>
<path d="M123.789 57.6908C125.288 57.6908 126.504 56.4753 126.504 54.976C126.504 53.4766 125.288 52.2611 123.789 52.2611C122.29 52.2611 121.074 53.4766 121.074 54.976C121.074 56.4753 122.29 57.6908 123.789 57.6908Z" fill="#FFC107"/>
<path d="M123.789 52.9403C124.916 52.9403 125.825 53.8498 125.825 54.9764C125.825 56.1031 124.916 57.0126 123.789 57.0126C122.662 57.0126 121.753 56.1031 121.753 54.9764C121.753 53.8498 122.669 52.9403 123.789 52.9403ZM123.789 51.5829C121.916 51.5829 120.396 53.1032 120.396 54.9764C120.396 56.8497 121.916 58.37 123.789 58.37C125.662 58.37 127.183 56.8497 127.183 54.9764C127.183 53.1032 125.662 51.5829 123.789 51.5829Z" fill="#C62828"/>
<path d="M153.835 65.1559H137.546C136.8 65.1559 136.189 64.5451 136.189 63.7985V61.0837C136.189 60.3371 136.8 59.7263 137.546 59.7263H153.835C154.582 59.7263 155.193 60.3371 155.193 61.0837V63.7985C155.193 64.5451 154.582 65.1559 153.835 65.1559Z" fill="#795548"/>
<path opacity="0.2" d="M153.835 61.0837V63.7985H137.546V61.0837H153.835ZM153.835 59.7263H137.546C136.8 59.7263 136.189 60.3371 136.189 61.0837V63.7985C136.189 64.5451 136.8 65.1559 137.546 65.1559H153.835C154.582 65.1559 155.193 64.5451 155.193 63.7985V61.0837C155.193 60.3371 154.582 59.7263 153.835 59.7263Z" fill="#424242"/>
<path d="M168.279 33.3926L130.895 0.814454C129.646 -0.271485 127.8 -0.271485 126.551 0.814454L89.1679 33.3926C87.7698 34.6143 87.6069 36.7522 88.8082 38.1775C90.0095 39.6028 92.1135 39.7657 93.5117 38.544L127.386 9.02686C128.153 8.36173 129.293 8.36173 130.06 9.02686L163.935 38.544C164.566 39.0938 165.34 39.3585 166.107 39.3585C167.05 39.3585 167.98 38.958 168.645 38.1707C169.84 36.759 169.677 34.6143 168.279 33.3926Z" fill="url(#paint7_radial_301_238)"/>
<path d="M89.6092 80.7667C89.1612 80.7667 88.9169 80.2916 88.8354 80.088C88.5843 79.484 88.6115 78.5949 89.1409 78.0655C89.358 77.8483 89.3784 77.4818 89.2359 77.2171C88.9101 76.6402 88.7744 75.9207 88.849 75.1945C89.073 72.9276 90.8376 71.0544 93.1453 70.6336C93.4642 70.5793 93.7832 70.5454 94.1022 70.5454C94.523 70.5454 94.9506 70.5996 95.3646 70.7015C95.4189 70.715 95.4732 70.7218 95.5275 70.7218C95.7583 70.7218 95.9755 70.6064 96.1044 70.4028C97.0818 68.835 98.7582 67.8984 100.598 67.8984C102.932 67.8984 105.023 69.4662 105.674 71.7059C105.763 71.9978 106.027 72.1946 106.326 72.1946C106.367 72.1946 106.407 72.1878 106.455 72.181C106.787 72.12 107.12 72.086 107.446 72.086C107.86 72.086 108.274 72.1335 108.681 72.2353C110.887 72.7715 112.55 74.7194 112.726 76.9592C112.835 78.3641 112.4 79.7012 111.511 80.7667H89.6092Z" fill="url(#paint8_radial_301_238)"/>
<path d="M100.598 68.5706C102.634 68.5706 104.453 69.9348 105.023 71.8895C105.192 72.4799 105.735 72.8668 106.326 72.8668C106.407 72.8668 106.496 72.86 106.577 72.8397C106.862 72.7854 107.154 72.7582 107.439 72.7582C107.799 72.7582 108.158 72.7989 108.511 72.8872C110.439 73.3555 111.891 75.0523 112.041 77.0069C112.129 78.1268 111.817 79.1992 111.172 80.0815L89.6431 80.0883C89.5956 80.0611 89.4327 79.8643 89.3784 79.4978C89.3309 79.1992 89.3784 78.7852 89.6228 78.534C89.9621 78.2015 90.2132 77.5635 89.8264 76.8712C89.5685 76.4165 89.4599 75.8396 89.5209 75.2423C89.711 73.308 91.2856 71.6451 93.2606 71.2854C93.5389 71.2379 93.8172 71.2107 94.0955 71.2107C94.462 71.2107 94.8353 71.2583 95.195 71.3465C95.3036 71.3736 95.4122 71.3872 95.5208 71.3872C95.9823 71.3872 96.4234 71.1497 96.6746 70.7492C97.523 69.3918 98.989 68.5706 100.598 68.5706ZM100.598 67.2131C98.4528 67.2131 96.5795 68.3398 95.5275 70.0366C95.0728 69.928 94.5977 69.8669 94.1022 69.8669C93.7493 69.8669 93.3896 69.9008 93.0231 69.9619C90.4711 70.4234 88.4282 72.541 88.1703 75.1201C88.021 76.6337 88.6726 77.5703 88.659 77.5838C87.3898 78.8598 88.0889 81.4457 89.6092 81.4457H111.81C112.903 80.2715 113.534 78.663 113.398 76.9119C113.201 74.3532 111.335 72.1881 108.837 71.5773C108.362 71.4619 107.894 71.4076 107.446 71.4076C107.066 71.4076 106.692 71.4483 106.326 71.5162C105.6 69.0321 103.312 67.2131 100.598 67.2131Z" fill="#689F38"/>
<path d="M94.7266 73.9319C94.7266 73.9319 94.6723 72.2962 95.989 70.5451" stroke="#689F38" stroke-width="1.70374" stroke-miterlimit="10" stroke-linecap="round" stroke-linejoin="round"/>
<path d="M106.224 72.1951C104.676 72.2223 103.17 73.4372 102.939 74.9168" stroke="#689F38" stroke-width="1.70374" stroke-miterlimit="10" stroke-linecap="round" stroke-linejoin="round"/>
<path d="M104.636 75.6018C103.279 74.9842 101.453 75.0792 100.048 75.7986" stroke="#689F38" stroke-width="1.70374" stroke-miterlimit="10" stroke-linecap="round" stroke-linejoin="round"/>
<path opacity="0.2" d="M128.723 2.03613C128.94 2.03613 129.259 2.09043 129.558 2.35513L166.941 34.9333C167.505 35.4287 167.573 36.2975 167.084 36.8744C166.745 37.2748 166.324 37.3359 166.107 37.3359C165.889 37.3359 165.57 37.2816 165.272 37.0169L131.397 7.49298C130.658 6.8482 129.707 6.48848 128.723 6.48848C127.739 6.48848 126.789 6.84141 126.049 7.49298L92.1746 37.0101C91.876 37.2748 91.557 37.3291 91.3398 37.3291C91.1226 37.3291 90.7018 37.2681 90.3624 36.8676C89.8738 36.2907 89.9416 35.422 90.505 34.9265L127.888 2.34834C128.187 2.09043 128.506 2.03613 128.723 2.03613ZM128.723 0C127.949 0 127.176 0.271484 126.551 0.814454L89.1679 33.3926C87.7698 34.6143 87.6069 36.7522 88.8082 38.1775C89.4665 38.9648 90.3964 39.3653 91.3398 39.3653C92.1067 39.3653 92.8805 39.0938 93.5117 38.5508L127.386 9.02686C127.766 8.69429 128.248 8.52462 128.723 8.52462C129.198 8.52462 129.68 8.69429 130.06 9.02686L163.935 38.544C164.566 39.0938 165.34 39.3585 166.107 39.3585C167.05 39.3585 167.98 38.958 168.645 38.1707C169.846 36.7454 169.683 34.6075 168.285 33.3858L130.895 0.814454C130.271 0.271484 129.497 0 128.723 0Z" fill="#424242"/>
<path d="M33.8493 73.5503C33.8493 73.5503 32.9307 76.2025 33.4688 79.0162C34.0108 81.8298 34.768 84.4282 34.768 84.4282C34.768 84.4282 34.9294 89.9479 34.768 90.5437C34.6066 91.1395 33.3612 91.8967 33.3612 92.9806C33.3612 94.0646 33.7571 95.433 35.7597 95.7597C37.7623 96.0864 39.3844 95.4176 40.0532 94.6066C41.018 93.4342 40.8297 92.604 40.8297 91.7391C40.8297 90.8743 40.8835 85.8966 41.0987 85.1355C41.314 84.3783 41.6407 83.9439 42.2365 83.9977C42.8323 84.0515 43.4819 84.9702 43.5357 86.7038C43.5895 88.4335 43.6433 91.4662 43.5895 92.062C43.5357 92.6578 42.9937 94.6604 43.428 95.4714C43.8624 96.2825 45.8266 97.0704 47.341 96.9859C49.3244 96.8782 50.516 95.6329 50.6236 94.6604C50.7312 93.6879 50.0816 91.4662 50.0816 90.8166C50.0816 90.167 50.8389 85.7313 51.0541 85.4584C51.2694 85.1893 51.9305 85.247 53.3796 84.5935C54.698 83.9977 55.4014 83.4019 55.4014 83.4019C55.4014 83.4019 55.436 87.2457 55.3822 87.6762C55.3284 88.1106 54.0292 89.4636 54.2444 90.4899C54.4597 91.5162 55.7281 92.1158 56.8582 92.2196C58.7686 92.4002 60.629 90.9204 61.1133 89.6212C61.6014 88.322 61.3824 86.6999 61.2747 85.8351C61.1671 84.9702 61.1671 81.9375 61.2747 81.1264C61.3824 80.3154 61.5592 79.8234 61.6284 79.3967C61.736 78.6933 61.7091 77.9092 61.7091 77.9092C61.7091 77.9092 63.5772 77.9092 64.6842 77.1789C65.7912 76.4485 66.9558 75.1763 67.4709 73.608C67.9744 72.0743 67.8514 71.6054 67.4171 71.5516C66.9827 71.4978 65.0378 74.2268 63.385 74.3114C60.7597 74.4459 61.021 71.6323 59.0184 69.9295C56.7621 68.0076 53.2451 67.7654 53.2451 67.7654C53.2451 67.7654 53.8524 65.4938 53.8601 63.814C53.887 56.4801 50.3161 53.9932 50.3161 53.9932C50.3161 53.9932 46.0226 50.7951 41.1525 51.0104C36.2825 51.2256 32.7116 55.0963 32.7116 55.0963L30.0325 66.9198C30.0325 66.9198 30.709 69.1915 31.7929 70.8443C32.9307 72.574 33.8493 73.5503 33.8493 73.5503Z" fill="#FFD2B1"/>
<path d="M30.4669 52.4749C26.4885 52.5556 24.386 55.9458 24.3245 58.0214C24.2899 59.2399 23.8094 68.096 28.7064 68.2766C30.6706 68.3497 32.1312 66.0703 32.8731 63.4873C33.8071 60.2316 33.7648 56.9682 33.8724 56.0995C34.0454 54.7119 34.3337 53.6933 34.3337 53.6933C34.3337 53.6933 33.8494 52.4057 30.4669 52.4749Z" fill="#865B52"/>
<path d="M51.7614 51.122C56.0895 51.2834 57.5655 53.2015 57.9845 54.3161C58.4458 55.5346 58.8493 59.8819 58.1728 62.784C57.6232 65.1518 56.7929 66.3549 54.8441 66.2742C53.0606 66.2011 52.1573 63.6296 50.812 60.1318C49.5128 56.7493 48.5173 53.7204 48.3481 53.286C48.1329 52.7171 47.6716 52.475 47.6716 52.475C47.6716 52.475 48.5365 50.999 51.7614 51.122Z" fill="#865B52"/>
<path d="M46.8107 59.9128C44.6735 60.0473 43.6511 62.4228 44.1047 64.8097C44.5928 67.3812 46.2802 68.5997 48.4059 68.3268C50.7313 68.0308 51.4348 65.3786 51.1388 63.376C50.8659 61.5541 49.8357 59.7206 46.8107 59.9128Z" fill="#D27856"/>
<path d="M49.3244 64.2676C49.3244 65.3899 48.7017 66.3278 47.7139 66.3009C46.3724 66.2625 46.0226 65.0748 46.0495 64.0754C46.0803 62.9069 46.7798 62.3534 47.7792 62.3803C48.671 62.3995 49.3244 63.1452 49.3244 64.2676Z" fill="#060401"/>
<path d="M38.0429 64.8864C38.0429 66.0549 37.4202 67.0312 36.4324 67.0004C35.0909 66.962 34.7411 65.7243 34.768 64.6826C34.7988 63.4642 35.6329 62.9452 36.417 63.0029C37.3049 63.0682 38.0429 63.7178 38.0429 64.8864Z" fill="#060401"/>
<path d="M43.182 71.4132C43.182 71.4132 45.5344 71.1711 45.4267 69.4644C45.3191 67.7616 43.7239 67.6502 42.4785 67.6771C41.2332 67.704 39.4496 68.3536 39.638 69.7873C39.8263 71.221 41.8559 71.4094 41.8559 71.4094C41.8559 71.4094 41.852 72.4703 41.1524 72.5471C40.3952 72.6279 39.3113 71.4632 39.0153 71.1672C38.7193 70.8713 38.2581 70.9789 38.0966 71.221C37.9352 71.4632 38.0428 72.0052 38.5041 72.4664C38.9653 72.9277 40.0454 74.0885 41.1294 73.9809C42.2133 73.8732 42.2402 73.3044 42.6707 73.2775C43.1051 73.2506 43.0782 73.9002 44.1583 73.8732C44.9193 73.854 46.453 72.5164 46.7298 72.2781C47.3525 71.7361 47.5139 71.1941 47.2448 70.8443C46.9758 70.4946 46.2185 71.0058 45.8111 71.3056C45.4037 71.6016 44.7464 72.3011 44.1083 72.4165C43.0474 72.6048 43.182 71.4132 43.182 71.4132Z" fill="#060401"/>
<path d="M52.7876 68.8761C52.7876 68.8761 52.2764 69.9985 51.8498 70.898C51.3347 71.9819 50.5967 72.9275 50.5967 72.9275C50.5967 72.9275 51.4308 78.6316 56.3931 78.1396C58.1689 77.9628 59.5143 76.5714 59.6411 75.0954C59.8563 72.6046 58.9108 71.4399 57.4425 70.3022C55.0632 68.4648 52.7876 68.8761 52.7876 68.8761Z" fill="#D27856"/>
<path d="M49.3512 77.7978C48.471 78.605 48.9438 80.1233 50.1085 80.2886C51.2731 80.45 51.8997 79.4814 51.8113 78.7472C51.6806 77.6095 50.3545 76.8791 49.3512 77.7978Z" fill="#D27856"/>
<path d="M37.8544 76.2988C37.8544 76.2988 37.078 78.4283 38.7193 81.0959C39.4188 82.2298 40.9756 82.8678 42.0749 82.8256C43.2357 82.7833 44.2851 82.3797 45.1845 81.2573C46.6182 79.4699 46.2108 76.4949 46.2108 76.4949C46.2108 76.4949 43.9391 77.4289 41.8558 77.3597C39.6379 77.2905 37.8544 76.2988 37.8544 76.2988Z" fill="#D27856"/>
<path d="M35.0216 92.5963C34.4566 92.4233 34.2298 93.2997 34.1914 93.857C34.153 94.4144 34.1568 95.137 34.6603 95.3177C35.1639 95.4983 35.0639 94.4259 35.1101 94.0723C35.2023 93.3919 35.6174 92.7769 35.0216 92.5963Z" fill="#D27856"/>
<path d="M37.2396 92.9231C36.9013 92.9077 36.5438 93.2498 36.5016 94.2415C36.467 95.0718 36.5016 95.756 36.9705 95.7944C37.6009 95.8444 37.4241 95.0372 37.4587 94.3684C37.474 93.9878 37.943 92.9577 37.2396 92.9231Z" fill="#D27856"/>
<path d="M45.8458 94.0031C45.3038 94.0031 45.2885 94.6181 45.2885 95.2831C45.2885 95.9519 45.1501 96.7783 45.7574 96.8514C46.4954 96.9398 46.3532 95.9481 46.3532 95.3907C46.3493 94.9064 46.4378 94.0031 45.8458 94.0031Z" fill="#D27856"/>
<path d="M48.2982 93.8801C47.8638 93.9685 47.9023 94.5643 47.9177 95.2869C47.9369 96.0096 47.8293 96.7745 48.4404 96.713C48.9632 96.6592 48.9286 95.8097 48.9094 95.1601C48.894 94.5989 48.967 93.7379 48.2982 93.8801Z" fill="#D27856"/>
<path d="M55.728 89.1791C55.3551 89.1061 54.9323 89.4213 54.8247 90.2631C54.7363 90.9857 54.7709 91.6199 55.4013 91.7583C55.7241 91.8313 55.7818 91.0011 55.7972 90.4053C55.8164 89.8902 56.1969 89.2714 55.728 89.1791Z" fill="#D27856"/>
<path d="M57.7654 89.6175C57.4079 89.5598 57.0581 89.7789 56.9659 90.6745C56.9121 91.1973 56.7199 92.1352 57.3695 92.1698C57.873 92.1928 57.8346 91.3664 57.8807 90.9359C57.9537 90.2556 58.3535 89.7174 57.7654 89.6175Z" fill="#D27856"/>
<path d="M201.903 79.7456C201.903 79.7456 200.086 82.872 199.518 85.1714C198.954 87.4667 199.264 88.3653 199.88 90.2386C200.586 92.3778 201.443 94.116 203.092 93.0908C204.426 92.2596 204.568 90.2597 204.366 89.4665C204.164 88.6733 203.983 87.5679 204.065 87.0912C204.146 86.6144 205.055 84.4584 205.783 83.4289C206.51 82.3995 206.51 80.8932 206.39 80.7751C206.265 80.6569 201.903 79.7456 201.903 79.7456Z" fill="#4D4D4D"/>
<path d="M206.127 95.1711C206.127 95.1711 205.61 97.9641 205.886 97.9641C206.157 97.9641 208.069 97.8755 208.736 97.4283C209.404 96.9811 210.002 95.4664 210.553 93.745C211.221 91.6649 212.151 88.9984 212.37 88.3403C212.775 87.1336 213.218 85.9058 213.218 85.9058C213.218 85.9058 215.277 85.7244 216.551 85.6695C218.583 85.5809 219.996 85.4881 220.31 85.6991C220.706 85.9649 222.527 87.1673 222.975 87.8086C223.643 88.7579 221.339 93.2134 221.339 93.2134C221.339 93.2134 219.703 94.6394 219.763 95.4411C219.823 96.2427 221.399 96.1541 222.794 96.0951C224.189 96.036 224.934 95.6478 225.128 95.4411C225.856 94.669 226.613 92.5594 227.1 90.838C227.565 89.1883 228.189 88.163 228.009 87.0956C227.828 86.0282 222.312 81.4546 222.312 81.4546L208.766 84.6611L206.127 95.1711Z" fill="#4D4D4D"/>
<path d="M198.493 57.9621L205.606 55.1521C205.606 55.1521 204.917 53.3716 204.03 51.8274C203.143 50.2832 201.163 47.3931 200.232 47.6294C199.302 47.8656 198.329 52.2704 198.11 53.4518C197.662 55.8609 198.493 57.9621 198.493 57.9621Z" fill="#4D4D4D"/>
<path d="M191.905 64.1178C191.892 64.1178 190.433 64.1178 189.438 64.0882C188.439 64.0587 187.509 64.0292 187.509 64.0292C187.509 64.0292 187.048 64.0165 187.048 63.5735C187.048 63.1263 187.526 63.1474 187.526 63.1474C187.526 63.1474 188.461 63.1769 189.464 63.2064C190.446 63.236 191.892 63.236 191.905 63.236C192.155 63.236 192.357 63.4343 192.357 63.679C192.357 63.9237 192.155 64.1178 191.905 64.1178Z" fill="#B0B1B2"/>
<path d="M187.535 66.7971C187.535 66.7971 187.109 66.9111 187.014 66.4554C186.919 65.9955 187.341 65.9322 187.341 65.9322C187.341 65.9322 188.577 65.5736 189.429 65.3964C190.273 65.2192 192.03 64.8943 192.047 64.8901C192.293 64.8437 192.529 65.004 192.577 65.2445C192.624 65.485 192.461 65.717 192.215 65.7634C192.198 65.7677 190.454 66.0925 189.619 66.2655C188.771 66.4385 187.535 66.7971 187.535 66.7971Z" fill="#B0B1B2"/>
<path d="M189.623 69.0797C189.477 69.0797 189.335 69.008 189.244 68.8814C189.106 68.6789 189.162 68.4046 189.369 68.2654L191.729 66.4554C191.935 66.3204 192.215 66.3752 192.357 66.5777C192.495 66.7802 192.439 67.0545 192.232 67.1937L190.019 68.9025C189.942 68.9531 189.709 69.0797 189.623 69.0797Z" fill="#B0B1B2"/>
<path d="M199.578 74.0836C199.578 74.438 199.832 77.0707 200.125 78.9525C200.426 80.9144 201.339 82.3995 203.156 83.5851C205.339 85.0112 207.276 85.2475 207.276 85.2475C207.276 85.2475 206.609 89.2852 205.701 91.9601C205.537 92.4453 204.551 94.4241 204.336 94.7532C204.12 95.0823 203.548 96.0316 203.638 96.7151C203.737 97.4577 204.306 98.3184 206.73 97.8416C208.693 97.4577 208.882 95.5169 209.459 93.9431C209.675 93.3525 211.014 89.7071 211.276 88.8548C211.858 86.9689 212.185 85.6989 212.491 85.3698C212.792 85.0449 216.008 84.8931 218.006 84.7749C220.008 84.6568 223.22 84.5977 223.22 84.5977C223.22 84.5977 224.585 85.6947 226.101 86.3782C228.46 87.4414 230.678 87.7452 231.707 89.1122C232.702 90.4286 232.538 91.6985 232.314 92.766C231.952 94.4874 231.289 95.4367 231.406 96.0611C231.556 96.8923 232.374 96.9809 234.071 97.0105C235.711 97.04 236.03 96.7193 236.344 95.943C237.589 92.863 235.586 88.8759 235.436 86.2305C235.363 84.9774 233.343 84.6272 232.891 82.7835C232.435 80.9439 232.297 79.0706 231.75 77.2311C231.156 75.2227 230.415 73.5267 230.415 73.5267C230.415 73.5267 232.525 72.2693 233.83 70.8728C235.134 69.4763 236.994 67.6241 236.232 63.9618C235.625 61.0506 233.645 59.1098 228.947 57.6542C224.301 56.2155 223.354 57.8862 223.22 58.979C223.04 60.4641 224.977 60.9789 227.04 61.3628C229.102 61.7468 233.05 62.9788 231.888 66.3541C231.16 68.4637 227.948 69.7505 227.948 69.7505C227.948 69.7505 224.857 69.2948 220.676 69.7421C217.3 70.1091 215.698 70.9741 215.337 70.818C214.79 70.5817 215.156 69.8096 215.733 68.9193C216.646 67.5059 217.765 65.6537 217.765 63.3374C217.765 61.0211 216.646 59.7722 216.646 59.7722C216.646 59.7722 216.616 55.2282 215.948 52.6461C215.281 50.0639 214.036 47.0599 212.732 47.0008C211.427 46.9418 209.124 50.0597 208.521 51.0386C207.918 52.0174 206.915 54.0384 206.915 54.0384C206.915 54.0384 203.384 53.6207 200.43 55.0172C197.838 56.2408 196.25 60.0675 195.462 60.3629C194.674 60.6582 192.814 60.5907 192.086 61.7805C191.785 62.2699 191.754 65.5314 191.754 65.5314C191.754 65.5314 191.983 66.3035 192.224 66.9785C192.413 67.5059 193.395 68.9193 194.575 69.7674C196.107 70.8686 198.157 72.4255 198.609 72.7799C199.061 73.1343 199.578 74.0836 199.578 74.0836Z" fill="#5D6265"/>
<path d="M208.491 55.8778C208.521 56.5023 209.976 57.3335 210.734 57.8693C211.492 58.4051 212.581 59.578 213.007 59.5021C213.761 59.3713 213.705 56.2365 213.554 54.8399C213.403 53.4434 212.646 51.1271 212.159 50.9499C211.673 50.7727 210.415 52.5489 210.097 53.0299C209.55 53.8611 208.46 55.3167 208.491 55.8778Z" fill="#FFAB93"/>
<path d="M193.158 64.4807C193.361 64.2445 196.418 63.4513 196.517 62.9154C196.616 62.3796 195.892 61.945 194.618 61.6497C193.472 61.3839 192.426 61.4894 192.168 61.6708C191.823 61.9071 191.44 63.1179 191.544 64.3457C191.647 65.6157 192.086 66.6536 192.654 67.2147C193.051 67.6071 194.015 68.2231 194.863 68.2822C195.711 68.3413 196.499 67.9869 196.926 67.5692C197.352 67.1515 197.046 66.4806 196.4 66.8561C195.754 67.2316 195.324 67.3455 194.764 67.1937C194.179 67.0333 193.339 66.4722 193.162 65.5524C193.051 65.0039 193.158 64.4807 193.158 64.4807Z" fill="#2F2F2F"/>
<path d="M205.856 68.2906C205.787 68.2906 205.718 68.2737 205.653 68.2442C205.64 68.24 204.443 67.6451 203.406 67.3455C202.338 67.0375 201.339 66.8012 201.326 66.797C201.085 66.738 200.934 66.5017 200.99 66.2612C201.05 66.0249 201.292 65.8772 201.537 65.9321C201.546 65.9363 202.57 66.1768 203.66 66.4932C204.779 66.8181 206.006 67.4299 206.058 67.4552C206.282 67.5649 206.368 67.8307 206.256 68.0501C206.179 68.202 206.019 68.2906 205.856 68.2906Z" fill="#B0B1B2"/>
<path d="M205.391 71.3411C205.296 71.3411 205.201 71.3116 205.124 71.2525C205.111 71.2441 203.724 70.2399 202.833 69.6366C201.968 69.0543 200.771 68.5101 200.758 68.5058C200.53 68.4046 200.43 68.1388 200.534 67.9194C200.637 67.6958 200.908 67.5987 201.132 67.7C201.184 67.7253 202.411 68.278 203.341 68.9067C204.245 69.5184 205.645 70.5268 205.658 70.5395C205.86 70.6829 205.899 70.9614 205.752 71.1597C205.666 71.2778 205.528 71.3411 205.391 71.3411Z" fill="#B0B1B2"/>
<path d="M203.251 72.8853C203.143 72.8853 203.035 72.8473 202.949 72.7713L199.961 70.1597C199.776 69.9951 199.759 69.7167 199.927 69.5352C200.095 69.3538 200.379 69.3369 200.564 69.5015L203.552 72.1132C203.737 72.2777 203.754 72.5562 203.587 72.7376C203.496 72.8346 203.376 72.8853 203.251 72.8853Z" fill="#B0B1B2"/>
<path d="M203.296 62.7793C203.862 61.8187 203.695 60.6859 202.923 60.249C202.15 59.8121 201.066 60.2365 200.5 61.1971C199.934 62.1576 200.101 63.2905 200.873 63.7274C201.645 64.1643 202.73 63.7398 203.296 62.7793Z" fill="#010000"/>
<path d="M201.761 61.6876C201.524 62.1222 201.111 62.4007 200.771 62.1939C200.43 61.9872 200.624 61.3248 200.814 61.0758C201.003 60.8269 201.343 60.5147 201.679 60.7214C202.024 60.9324 201.92 61.4007 201.761 61.6876Z" fill="#DEDEDE"/>
</g>
<defs>
<radialGradient id="paint0_radial_301_238" cx="0" cy="0" r="1" gradientUnits="userSpaceOnUse" gradientTransform="translate(128.723 2.95332) scale(84.262)">
<stop stop-color="#FFD54F"/>
<stop offset="0.179" stop-color="#FFD34B"/>
<stop offset="0.3526" stop-color="#FFCE3F"/>
<stop offset="0.524" stop-color="#FFC62C"/>
<stop offset="0.693" stop-color="#FFBA11"/>
<stop offset="0.7785" stop-color="#FFB300"/>
<stop offset="1" stop-color="#FFB300"/>
</radialGradient>
<radialGradient id="paint1_radial_301_238" cx="0" cy="0" r="1" gradientUnits="userSpaceOnUse" gradientTransform="translate(116.082 37.8387) scale(35.6337 35.6337)">
<stop stop-color="#D32F2F"/>
<stop offset="0.4374" stop-color="#CA2929"/>
<stop offset="0.9957" stop-color="#B71C1C"/>
</radialGradient>
<radialGradient id="paint2_radial_301_238" cx="0" cy="0" r="1" gradientUnits="userSpaceOnUse" gradientTransform="translate(116.422 39.7043) scale(31.987)">
<stop stop-color="#EF5350"/>
<stop offset="1" stop-color="#E53935"/>
</radialGradient>
<radialGradient id="paint3_radial_301_238" cx="0" cy="0" r="1" gradientUnits="userSpaceOnUse" gradientTransform="translate(116.167 42.59) scale(28.2446 28.2446)">
<stop stop-color="#E53935"/>
<stop offset="0.4072" stop-color="#DC3431"/>
<stop offset="1" stop-color="#C62828"/>
</radialGradient>
<radialGradient id="paint4_radial_301_238" cx="0" cy="0" r="1" gradientUnits="userSpaceOnUse" gradientTransform="translate(116.167 42.5892) scale(28.2446)">
<stop stop-color="#E53935"/>
<stop offset="0.4072" stop-color="#DC3431"/>
<stop offset="1" stop-color="#C62828"/>
</radialGradient>
<linearGradient id="paint5_linear_301_238" x1="116.523" y1="71.7189" x2="116.523" y2="76.1509" gradientUnits="userSpaceOnUse">
<stop offset="0.0042918" stop-color="#BDBDBD"/>
<stop offset="0.2153" stop-color="#B5B5B5"/>
<stop offset="0.5502" stop-color="#9E9E9E"/>
<stop offset="0.9652" stop-color="#787878"/>
<stop offset="1" stop-color="#757575"/>
</linearGradient>
<linearGradient id="paint6_linear_301_238" x1="116.523" y1="74.9438" x2="116.523" y2="79.3486" gradientUnits="userSpaceOnUse">
<stop offset="0.0042918" stop-color="#BDBDBD"/>
<stop offset="0.3969" stop-color="#BABABA"/>
<stop offset="0.7025" stop-color="#B0B0B0"/>
<stop offset="0.9786" stop-color="#A0A0A0"/>
<stop offset="1" stop-color="#9E9E9E"/>
</linearGradient>
<radialGradient id="paint7_radial_301_238" cx="0" cy="0" r="1" gradientUnits="userSpaceOnUse" gradientTransform="translate(128.384 -0.169678) scale(45.9074 45.9074)">
<stop stop-color="#F44336"/>
<stop offset="0.34" stop-color="#EE3F35"/>
<stop offset="0.8027" stop-color="#DC3531"/>
<stop offset="0.9957" stop-color="#D32F2F"/>
</radialGradient>
<radialGradient id="paint8_radial_301_238" cx="0" cy="0" r="1" gradientUnits="userSpaceOnUse" gradientTransform="translate(100.245 68.6416) rotate(90) scale(16.4913 19.158)">
<stop stop-color="#9CCC65"/>
<stop offset="0.2538" stop-color="#96C760"/>
<stop offset="0.5994" stop-color="#84B851"/>
<stop offset="0.9952" stop-color="#689F38"/>
</radialGradient>
<clipPath id="clip0_301_238">
<rect width="264" height="99" fill="white"/>
</clipPath>
</defs>
</svg>
