<svg width="42" height="42" viewBox="0 0 42 42" fill="none" xmlns="http://www.w3.org/2000/svg">
<g clip-path="url(#clip0_301_1304)">
<path d="M0.897974 20.7486C0.896989 24.2774 1.82616 27.7231 3.59296 30.7601L0.729004 41.1367L11.4302 38.3523C14.39 39.9513 17.7063 40.7891 21.0762 40.7893H21.0851C32.21 40.7893 41.266 31.806 41.2708 20.7644C41.2729 15.414 39.175 10.3828 35.3635 6.59757C31.5527 2.81268 26.4844 0.727173 21.0843 0.724731C9.95804 0.724731 0.902731 9.70752 0.898138 20.7486" fill="url(#paint0_linear_301_1304)"/>
<path d="M0.17663 20.7421C0.175482 24.3979 1.13795 27.9668 2.96775 31.1126L0.00109863 41.8611L11.086 38.977C14.1403 40.6295 17.579 41.5007 21.0782 41.502H21.0872C32.6113 41.502 41.9926 32.1956 41.9975 20.7587C41.9994 15.216 39.8261 10.004 35.8785 6.08316C31.9303 2.16284 26.6808 0.00227907 21.0872 0C9.56118 0 0.181224 9.30512 0.17663 20.7421ZM6.77794 30.5708L6.36404 29.9188C4.62415 27.1735 3.7058 24.001 3.70711 20.7434C3.71089 11.2373 11.5071 3.50326 21.0938 3.50326C25.7363 3.50521 30.0994 5.30112 33.381 8.55954C36.6625 11.8183 38.4681 16.1501 38.467 20.7574C38.4627 30.2636 30.6663 37.9986 21.0872 37.9986H21.0803C17.9613 37.997 14.9023 37.1658 12.2345 35.595L11.5996 35.2214L5.02163 36.9328L6.77794 30.5706V30.5708Z" fill="url(#paint1_linear_301_1304)"/>
<path d="M15.8617 12.0706C15.4703 11.2073 15.0584 11.1899 14.6862 11.1748C14.3814 11.1618 14.0329 11.1627 13.6848 11.1627C13.3364 11.1627 12.7702 11.2928 12.2917 11.8113C11.8127 12.3303 10.4629 13.5844 10.4629 16.1352C10.4629 18.6861 12.3352 21.1513 12.5962 21.4975C12.8575 21.8431 16.2107 27.2452 21.5212 29.3233C25.9348 31.0504 26.833 30.7069 27.7908 30.6203C28.7489 30.534 30.8822 29.3665 31.3174 28.1558C31.7529 26.9453 31.7529 25.9077 31.6223 25.6908C31.4918 25.4748 31.1433 25.3451 30.6208 25.0859C30.0982 24.8266 27.5295 23.5723 27.0506 23.3992C26.5716 23.2263 26.2233 23.1401 25.8749 23.6592C25.5265 24.1775 24.5259 25.3451 24.221 25.6908C23.9163 26.0374 23.6114 26.0806 23.089 25.8212C22.5662 25.5611 20.8836 25.0143 18.8873 23.2482C17.3341 21.8739 16.2855 20.1768 15.9807 19.6576C15.6759 19.1393 15.948 18.8583 16.21 18.6C16.4448 18.3677 16.7327 17.9946 16.9942 17.6919C17.2547 17.3892 17.3416 17.1731 17.5158 16.8274C17.6902 16.4813 17.6029 16.1785 17.4725 15.9192C17.3416 15.6598 16.3263 13.0957 15.8617 12.0706Z" fill="white"/>
</g>
<defs>
<linearGradient id="paint0_linear_301_1304" x1="2027.82" y1="4041.92" x2="2027.82" y2="0.724731" gradientUnits="userSpaceOnUse">
<stop stop-color="#1FAF38"/>
<stop offset="1" stop-color="#60D669"/>
</linearGradient>
<linearGradient id="paint1_linear_301_1304" x1="2099.82" y1="4186.11" x2="2099.82" y2="0" gradientUnits="userSpaceOnUse">
<stop stop-color="#F9F9F9"/>
<stop offset="1" stop-color="white"/>
</linearGradient>
<clipPath id="clip0_301_1304">
<rect width="42" height="42" fill="white"/>
</clipPath>
</defs>
</svg>
