<svg width="40" height="41" viewBox="0 0 40 41" fill="none" xmlns="http://www.w3.org/2000/svg">
<g clip-path="url(#clip0_301_1002)">
<path d="M28.3333 6.06665C30.847 7.51808 32.9382 9.60086 34.3996 12.1088C35.8611 14.6168 36.6422 17.4629 36.6656 20.3655C36.6891 23.2682 35.954 26.1266 34.5333 28.6578C33.1125 31.1891 31.0553 33.3053 28.5653 34.7972C26.0753 36.289 23.2389 37.1047 20.3368 37.1634C17.4346 37.2222 14.5675 36.5219 12.0192 35.1321C9.47085 33.7422 7.3297 31.7109 5.8077 29.2392C4.28569 26.7675 3.4356 23.9412 3.34159 21.04L3.33325 20.5L3.34159 19.96C3.43492 17.0816 4.2725 14.2766 5.77265 11.8183C7.2728 9.36002 9.38434 7.3324 11.9014 5.93312C14.4185 4.53384 17.2552 3.81064 20.1349 3.83405C23.0147 3.85745 25.8393 4.62665 28.3333 6.06665ZM24.9999 22.1666H14.9999C14.5579 22.1666 14.134 22.3422 13.8214 22.6548C13.5088 22.9674 13.3333 23.3913 13.3333 23.8333V23.9166C13.3333 25.6166 13.9867 27.2514 15.1585 28.483C16.3302 29.7146 17.9305 30.4486 19.6283 30.5333L20.0066 30.5417C21.7097 30.5293 23.3444 29.8699 24.5793 28.6969C25.8142 27.5239 26.5568 25.9252 26.6566 24.225L26.6666 23.8816C26.6731 23.6587 26.6347 23.4368 26.5539 23.229C26.473 23.0212 26.3513 22.8317 26.1959 22.6718C26.0404 22.5118 25.8545 22.3847 25.6491 22.298C25.4437 22.2112 25.2229 22.1666 24.9999 22.1666ZM15.0166 13.8333L14.8049 13.845C14.3831 13.8952 13.9963 14.1045 13.7237 14.4303C13.451 14.756 13.3131 15.1736 13.338 15.5977C13.3629 16.0217 13.5487 16.4203 13.8576 16.7119C14.1665 17.0035 14.5751 17.1662 14.9999 17.1667L15.2116 17.155C15.6334 17.1048 16.0202 16.8955 16.2928 16.5697C16.5655 16.2439 16.7034 15.8264 16.6785 15.4023C16.6536 14.9782 16.4678 14.5797 16.1589 14.2881C15.85 13.9964 15.4414 13.8338 15.0166 13.8333ZM25.0166 13.8333L24.8049 13.845C24.3831 13.8952 23.9963 14.1045 23.7237 14.4303C23.451 14.756 23.3131 15.1736 23.338 15.5977C23.3629 16.0217 23.5487 16.4203 23.8576 16.7119C24.1665 17.0035 24.5751 17.1662 24.9999 17.1667L25.2116 17.155C25.6334 17.1048 26.0202 16.8955 26.2928 16.5697C26.5655 16.2439 26.7034 15.8264 26.6785 15.4023C26.6536 14.9782 26.4678 14.5797 26.1589 14.2881C25.85 13.9964 25.4414 13.8338 25.0166 13.8333Z" fill="#646054"/>
</g>
<defs>
<clipPath id="clip0_301_1002">
<rect width="40" height="40" fill="white" transform="translate(0 0.5)"/>
</clipPath>
</defs>
</svg>
