<svg width="40" height="41" viewBox="0 0 40 41" fill="none" xmlns="http://www.w3.org/2000/svg">
<path fill-rule="evenodd" clip-rule="evenodd" d="M14.9366 31.2817C10.0316 27.5233 3.33325 21.315 3.33325 15.445C3.33325 5.63834 12.4999 1.97667 19.9999 9.55C27.4999 1.97667 36.6666 5.63834 36.6666 15.4433C36.6666 21.315 29.9666 27.5233 25.0633 31.2817C22.8433 32.9817 21.7333 33.8333 19.9999 33.8333C18.2666 33.8333 17.1566 32.9833 14.9366 31.2817ZM27.4999 10.9167C27.8314 10.9167 28.1494 11.0484 28.3838 11.2828C28.6182 11.5172 28.7499 11.8351 28.7499 12.1667V14.25H30.8333C31.1648 14.25 31.4827 14.3817 31.7171 14.6161C31.9516 14.8505 32.0833 15.1685 32.0833 15.5C32.0833 15.8315 31.9516 16.1495 31.7171 16.3839C31.4827 16.6183 31.1648 16.75 30.8333 16.75H28.7499V18.8333C28.7499 19.1649 28.6182 19.4828 28.3838 19.7172C28.1494 19.9516 27.8314 20.0833 27.4999 20.0833C27.1684 20.0833 26.8505 19.9516 26.616 19.7172C26.3816 19.4828 26.2499 19.1649 26.2499 18.8333V16.75H24.1666C23.8351 16.75 23.5171 16.6183 23.2827 16.3839C23.0483 16.1495 22.9166 15.8315 22.9166 15.5C22.9166 15.1685 23.0483 14.8505 23.2827 14.6161C23.5171 14.3817 23.8351 14.25 24.1666 14.25H26.2499V12.1667C26.2499 11.8351 26.3816 11.5172 26.616 11.2828C26.8505 11.0484 27.1684 10.9167 27.4999 10.9167Z" fill="#646054"/>
</svg>
