<svg width="42" height="42" viewBox="0 0 42 42" fill="none" xmlns="http://www.w3.org/2000/svg">
<g clip-path="url(#clip0_301_1311)">
<path d="M13.8243 31.1126C15.1509 32.6606 16.3582 34.2912 17.4376 35.9926C18.3592 37.5928 18.7434 38.6778 19.4169 40.6058C19.8299 41.671 20.2033 41.9889 21.0059 41.9889C21.8805 41.9889 22.2773 41.4481 22.5838 40.6116C23.2205 38.7909 23.72 37.4013 24.5081 36.0883C26.0546 33.5534 27.9763 31.3009 29.8645 29.136C30.3756 28.5233 33.6806 24.9537 35.1685 22.1372C35.1685 22.1372 36.9971 19.0433 36.9971 14.7223C36.9971 10.6805 35.1937 7.87726 35.1937 7.87726L30.0015 9.15053L26.8482 16.7553L26.0681 17.8039L25.9122 17.9939L25.7047 18.2317L25.3405 18.6115L24.8201 19.0879L22.0122 21.1827L14.9921 24.8942L13.8243 31.1126Z" fill="#34A853"/>
<path d="M6.57898 21.617C8.29231 25.2005 11.5962 28.3507 13.8316 31.1151L25.7047 18.2366C25.7047 18.2366 24.032 20.2397 20.9978 20.2397C17.618 20.2397 14.8876 17.7684 14.8876 14.6521C14.8876 12.5152 16.2916 11.0471 16.2916 11.0471L8.23182 13.0247L6.57898 21.617Z" fill="#FBBC04"/>
<path d="M25.8373 0.662285C29.7806 1.8265 33.1558 4.27062 35.1973 7.87473L25.7083 18.2292C25.7083 18.2292 27.1123 16.7346 27.1123 14.6109C27.1123 11.4221 24.1799 9.03985 21.0121 9.03985C18.0165 9.03985 16.296 11.0397 16.296 11.0397V4.51656L25.8373 0.66217V0.662285Z" fill="#4285F4"/>
<path d="M8.75391 5.23741C11.1091 2.6571 15.2534 0 20.9669 0C23.739 0 25.8274 0.666392 25.8274 0.666392L16.287 11.0454H9.52752L8.75391 5.23741Z" fill="#1A73E8"/>
<path d="M6.57916 21.6171C6.57916 21.6171 5.00293 18.7906 5.00293 14.6959C5.00293 10.8258 6.6459 7.44294 8.75417 5.23743L16.2926 11.0464L6.57916 21.6171Z" fill="#EA4335"/>
</g>
<defs>
<clipPath id="clip0_301_1311">
<rect width="32" height="42" fill="white" transform="translate(5)"/>
</clipPath>
</defs>
</svg>
